<svg width="220" height="220" viewBox="0 0 220 220" fill="none" xmlns="http://www.w3.org/2000/svg">
<path d="M105.746 97.0234C105.746 100.677 106.466 104.295 107.864 107.671C109.262 111.046 111.312 114.113 113.895 116.697C116.479 119.28 119.546 121.33 122.921 122.728C126.297 124.126 129.915 124.846 133.568 124.846C137.222 124.846 140.84 124.126 144.215 122.728C147.591 121.33 150.658 119.28 153.242 116.697C155.825 114.113 157.875 111.046 159.273 107.671C160.671 104.295 161.391 100.677 161.391 97.0234C161.391 93.3698 160.671 89.7519 159.273 86.3763C157.875 83.0008 155.825 79.9337 153.242 77.3501C150.658 74.7666 147.591 72.7172 144.215 71.319C140.84 69.9208 137.222 69.2012 133.568 69.2012C129.915 69.2012 126.297 69.9208 122.921 71.319C119.546 72.7172 116.479 74.7666 113.895 77.3501C111.312 79.9337 109.262 83.0008 107.864 86.3763C106.466 89.7519 105.746 93.3698 105.746 97.0234Z" fill="#F4CE26"/>
<path d="M133.568 130.496C115.113 130.496 100.096 115.479 100.096 97.0234C100.096 78.5684 115.113 63.5508 133.568 63.5508C152.023 63.5508 167.041 78.5684 167.041 97.0234C167.041 115.479 152.023 130.496 133.568 130.496ZM133.568 74.873C121.365 74.873 111.418 84.7988 111.418 97.0234C111.418 109.248 121.365 119.174 133.568 119.174C145.771 119.174 155.697 109.227 155.697 97.002C155.697 84.7773 145.771 74.873 133.568 74.873Z" fill="#333333"/>
<path d="M107.873 42.5391C110.408 41.0781 113.652 41.9375 115.113 44.4727L120.42 53.6465C121.881 56.1816 121.021 59.4258 118.486 60.8867C115.951 62.3477 112.707 61.4883 111.246 58.9531L105.939 49.7793C104.457 47.2227 105.338 44 107.873 42.5391ZM173.551 87.3125C174.303 90.1484 177.203 91.8242 180.039 91.0508L190.266 88.3008C193.102 87.5488 194.777 84.6484 194.004 81.8125C193.252 78.9766 190.352 77.3008 187.516 78.0742L177.289 80.8242C174.475 81.5762 172.799 84.4766 173.551 87.3125ZM170.715 111.139C169.963 113.975 171.639 116.875 174.453 117.627L184.68 120.377C187.516 121.129 190.416 119.453 191.168 116.639C191.92 113.803 190.244 110.902 187.43 110.15L177.203 107.4C174.389 106.648 171.488 108.324 170.715 111.139ZM143.021 34.7617C145.943 34.7617 148.328 37.125 148.328 40.0684V50.6602C148.328 53.582 145.965 55.9668 143.021 55.9668C140.1 55.9668 137.715 53.6035 137.715 50.6602V40.0684C137.715 37.1465 140.078 34.7617 143.021 34.7617ZM178.922 49.6934C176.859 47.6309 173.508 47.6309 171.424 49.6934L163.926 57.1914C161.863 59.2539 161.863 62.6055 163.926 64.6895C165.988 66.752 169.34 66.752 171.424 64.6895L178.922 57.1914C181.006 55.1074 181.006 51.7559 178.922 49.6934Z" fill="#333333"/>
<path d="M56.8262 159.156C56.3535 159.199 55.9023 159.242 55.4297 159.264C42.4316 159.994 31.582 148.586 31.582 135.416C31.582 122.246 42.2598 111.568 55.4297 111.568C56.332 111.568 57.2344 111.611 58.1152 111.719C58.0937 111.225 58.0937 110.73 58.0937 110.236C58.0937 91.9531 72.918 77.1289 91.2012 77.1289C107.357 77.1289 120.807 88.6875 123.729 103.984C125.211 103.748 126.736 103.619 128.283 103.619C143.645 103.619 156.105 116.08 156.105 131.441C156.062 141.26 150.992 149.896 143.301 154.838C138.961 157.631 133.805 159.414 128.262 159.242C127.51 159.221 126.779 159.178 126.049 159.092C125.812 159.113 125.555 159.113 125.318 159.113H56.8262V159.156Z" fill="white"/>
<path d="M54.2266 164.957C47.2656 164.957 40.627 162.271 35.3418 157.266C29.3477 151.594 25.9102 143.623 25.9102 135.416C25.9102 120.098 37.6621 107.443 52.6152 106.047C54.7207 86.6465 71.1992 71.4785 91.1582 71.4785C108.002 71.4785 122.74 82.3496 127.939 97.9687H128.24C146.717 97.9687 161.734 112.986 161.734 131.441C161.734 142.893 155.998 153.42 146.373 159.607C140.68 163.281 134.32 165.107 128.09 164.914C127.359 164.893 126.65 164.85 125.941 164.785C125.727 164.785 125.512 164.807 125.297 164.807H57.1055C56.6543 164.85 56.2031 164.893 55.752 164.914C55.2363 164.936 54.7422 164.957 54.2266 164.957ZM55.4082 117.24C45.3965 117.24 37.2324 125.404 37.2324 135.416C37.2324 140.529 39.3809 145.492 43.1191 149.037C46.4922 152.238 50.7891 153.871 55.0859 153.592C55.4512 153.57 55.8379 153.549 56.2031 153.506L56.8047 153.463H126.607C127.209 153.527 127.811 153.57 128.412 153.592C133.396 153.764 137.607 151.766 140.207 150.068C146.609 145.986 150.412 139.025 150.412 131.441C150.412 119.238 140.465 109.291 128.262 109.291C127.037 109.291 125.812 109.398 124.631 109.592L119.174 110.494L118.143 105.059C115.672 92.168 104.35 82.8008 91.1797 82.8008C76.0332 82.8008 63.7227 95.1113 63.7227 110.258C63.7227 110.666 63.7227 111.074 63.7441 111.482L64.0449 118.121L57.4492 117.369C56.7832 117.283 56.1172 117.24 55.4082 117.24Z" fill="#333333"/>
</svg>
